Coordinates
version=1
nRows=21
nColumns=22
inDegrees=yes

Units are S.I. units (second, meters, Newtons, ...)
If the header above contains a line with 'inDegrees', this indicates whether rotational values are in degrees (yes) or radians (no).

endheader
time	pelvis_tilt	pelvis_list	pelvis_rotation	pelvis_tx	pelvis_ty	pelvis_tz	hip_flexion_r	hip_adduction_r	hip_rotation_r	knee_angle_r	ankle_angle_r	subtalar_angle_r	hip_flexion_l	hip_adduction_l	hip_rotation_l	knee_angle_l	ankle_angle_l	subtalar_angle_l	lumbar_extension	lumbar_bending	lumbar_rotation
      4.14000000	     -6.04006592	     -6.30017075	      5.31080269	     -0.71714688	      0.96143204	     -0.23488106	      8.12866132	      8.23263561	     -7.02588755	    -20.42248394	     15.88000609	     -0.06693330	     27.54160457	     -5.22891948	      8.66507890	    -15.89884908	     10.12238127	     -3.36610774	     -1.41465576	      5.29567413	     -0.41292225
      4.15000000	     -5.86904811	     -6.21399355	      5.48492374	     -0.72163395	      0.96258936	     -0.23429249	      8.16138268	      8.18790759	     -7.11334485	    -20.26193432	     15.58712237	     -0.23443516	     27.41588618	     -5.09323641	      9.00610280	    -17.05833324	      9.84284093	     -3.20519968	     -1.54806820	      5.19587638	     -0.68535170
      4.16000000	     -5.68184845	     -6.10388333	      5.62951751	     -0.72593824	      0.96375670	     -0.23375921	      8.15930538	      8.10920744	     -7.21319979	    -20.10272910	     15.29231875	     -0.29730380	     27.22328343	     -4.93618538	      9.37648599	    -18.24324320	      9.67316953	     -3.07061730	     -1.69515853	      5.07708467	     -0.91786500
      4.17000000	     -5.50142141	     -5.99842827	      5.74810105	     -0.73006706	      0.96487731	     -0.23324330	      8.13276367	      8.03861686	     -7.28136177	    -19.91193224	     15.01165165	     -0.36723818	     27.00752856	     -4.78163113	      9.78142889	    -19.46712256	      9.63883996	     -2.88565732	     -1.82531830	      4.96407961	     -1.13147308
      4.18000000	     -5.32717210	     -5.89776594	      5.83121418	     -0.73402799	      0.96594010	     -0.23274352	      8.09386908	      7.97323532	     -7.32090989	    -19.71272432	     14.74081125	     -0.43545874	     26.76839850	     -4.63520700	     10.19157575	    -20.71983977	      9.72920859	     -2.65903902	     -1.94091886	      4.85988767	     -1.31279481
      4.19000000	     -5.17395771	     -5.79508177	      5.86912545	     -0.73783007	      0.96693605	     -0.23224909	      8.05764269	      7.90856544	     -7.30351307	    -19.50364903	     14.46087784	     -0.54761825	     26.51690552	     -4.49501609	     10.58041873	    -21.98496237	      9.90373623	     -2.25076648	     -2.02671799	      4.75486672	     -1.45942882
      4.20000000	     -5.01346494	     -5.72423115	      5.87455584	     -0.74149514	      0.96783653	     -0.23178719	      8.02969205	      7.86704733	     -7.30819254	    -19.33953063	     14.23732359	     -0.55768586	     26.24472960	     -4.39092703	     10.95480377	    -23.27825124	     10.17147483	     -2.11721450	     -2.11463234	      4.69289687	     -1.56296219
      4.21000000	     -4.86682622	     -5.66937966	      5.86423664	     -0.74501862	      0.96867157	     -0.23135288	      7.99613738	      7.84478010	     -7.26882353	    -19.15396832	     13.97967718	     -0.59031814	     25.96236344	     -4.30453210	     11.31711878	    -24.56420870	     10.44828649	     -1.82023975	     -2.17801114	      4.64990990	     -1.67929591
      4.22000000	     -4.73095946	     -5.63116705	      5.80462524	     -0.74841083	      0.96938392	     -0.23091010	      7.99724393	      7.83158986	     -7.24084040	    -19.03014057	     13.79651428	     -0.59344294	     25.67104995	     -4.25542293	     11.60766442	    -25.85110881	     10.80266158	     -1.67869709	     -2.22557438	      4.62497726	     -1.71151349
      4.23000000	     -4.60730221	     -5.60941861	      5.74837188	     -0.75167719	      0.97003267	     -0.23052259	      7.99513393	      7.83434317	     -7.19370621	    -18.88828916	     13.57226686	     -0.62101635	     25.37633676	     -4.22475328	     11.86987778	    -27.11829771	     11.14476754	     -1.26506463	     -2.25087892	      4.62114766	     -1.78130035
      4.24000000	     -4.49197617	     -5.61402984	      5.65629605	     -0.75483524	      0.97057329	     -0.23014650	      8.02102690	      7.86040921	     -7.12963809	    -18.79601585	     13.41366843	     -0.59925419	     25.06374780	     -4.23881281	     12.08021640	    -28.34726725	     11.49681066	     -1.21481338	     -2.26391291	      4.64973889	     -1.80300350
      4.25000000	     -4.38292781	     -5.63760612	      5.58005025	     -0.75787069	      0.97105255	     -0.22982598	      8.04261947	      7.90167763	     -7.08034747	    -18.69325866	     13.22957650	     -0.57817609	     24.74485958	     -4.27873620	     12.25504871	    -29.53661642	     11.84531570	     -0.92856514	     -2.26168967	      4.69971234	     -1.86292874
      4.26000000	     -4.29020487	     -5.66685110	      5.48150688	     -0.76079556	      0.97144234	     -0.22954209	      8.09160232	      7.94245474	     -7.02478573	    -18.62694285	     13.10245279	     -0.54715145	     24.40761867	     -4.34175209	     12.37424730	    -30.65190005	     12.18230976	     -0.92697511	     -2.23838636	      4.75814113	     -1.88360813
      4.27000000	     -4.20314233	     -5.72405437	      5.40197875	     -0.76361083	      0.97178438	     -0.22930849	      8.13471471	      8.01142604	     -6.96846395	    -18.54450304	     12.94777850	     -0.49827638	     24.05931572	     -4.44240403	     12.46812714	    -31.69338222	     12.49115222	     -0.87351183	     -2.20149169	      4.84762624	     -1.95417385
      4.28000000	     -4.13289251	     -5.77362994	      5.32455826	     -0.76631137	      0.97206258	     -0.22912888	      8.19943229	      8.06332937	     -6.93882434	    -18.48622167	     12.83737689	     -0.45012794	     23.69198349	     -4.54838417	     12.52094681	    -32.63184834	     12.80421315	     -0.85743406	     -2.14160728	      4.92685184	     -2.01329080
      4.29000000	     -4.07780594	     -5.83081285	      5.26147560	     -0.76890673	      0.97229641	     -0.22902641	      8.27502230	      8.11604859	     -6.91809444	    -18.42943568	     12.73457270	     -0.39783934	     23.30891919	     -4.67112940	     12.54705087	    -33.45446308	     13.10702467	     -0.86611113	     -2.05949790	      5.01849442	     -2.09251025
      4.30000000	     -4.03708259	     -5.89851557	      5.21897431	     -0.77140336	      0.97249833	     -0.22897563	      8.35747075	      8.17706734	     -6.90201596	    -18.36503737	     12.62711762	     -0.33427067	     22.91066849	     -4.81453562	     12.55461905	    -34.14580284	     13.39243903	     -0.88159590	     -1.95618170	      5.11923827	     -2.20973199
      4.31000000	     -4.01538834	     -5.96226615	      5.19569304	     -0.77380289	      0.97266980	     -0.22899211	      8.45523464	      8.22692814	     -6.90164672	    -18.30263248	     12.52934814	     -0.26983544	     22.49526523	     -4.96233381	     12.54505150	    -34.68729513	     13.66880651	     -0.90471631	     -1.82761590	      5.21439298	     -2.35251817
      4.32000000	     -4.00847490	     -6.03118588	      5.19716391	     -0.77611638	      0.97282290	     -0.22907128	      8.56223040	      8.27721242	     -6.91496101	    -18.23609852	     12.43199319	     -0.19982378	     22.06203416	     -5.12398853	     12.52293772	    -35.06710516	     13.93238389	     -0.92601079	     -1.67907695	      5.31481212	     -2.53470024
      4.33000000	     -4.02432857	     -6.09169088	      5.21913309	     -0.77833290	      0.97295379	     -0.22918332	      8.68161469	      8.31373237	     -6.95746950	    -18.15981484	     12.34380397	     -0.13683689	     21.61322021	     -5.28747905	     12.48779711	    -35.27263605	     14.19346423	     -0.94247674	     -1.50257110	      5.39562265	     -2.73294782
      4.34000000	     -4.05520233	     -6.14956193	      5.26313932	     -0.78048184	      0.97307226	     -0.22936189	      8.81108618	      8.34111808	     -7.01690152	    -18.08082255	     12.25769716	     -0.08265761	     21.14829049	     -5.45599633	     12.44289795	    -35.30668224	     14.44486974	     -0.94868267	     -1.30950778	      5.47481110	     -2.95934928
